<svg width="227" height="41" viewBox="0 0 227 41" fill="none" xmlns="http://www.w3.org/2000/svg">
<path d="M74.8217 12.5589C74.371 13.1078 73.8229 13.3823 73.1834 13.3823C72.5439 13.3823 71.9957 13.1139 71.5572 12.5772C71.1187 12.0404 70.8994 11.4244 70.8994 10.7412C70.8994 10.0581 71.1187 9.41766 71.5572 8.89311C71.9957 8.36246 72.5378 8.10019 73.1834 8.10019C73.8289 8.10019 74.371 8.35026 74.8217 8.85042C75.2724 9.35057 75.4977 9.97271 75.4977 10.7168C75.4977 11.4 75.2724 12.0221 74.8217 12.5711V12.5589ZM89.9748 11.6135H86.3754V6.08738H80.766V7.24017H81.3203C81.6857 7.24017 81.9659 7.34386 82.1486 7.56344C82.3313 7.77692 82.4226 8.0026 82.4226 8.23437V16.1758C82.0755 16.2856 81.6491 16.3649 81.1497 16.4198C80.6503 16.4747 79.9073 16.4991 79.219 16.4991H75.1079V15.1633C76.2895 14.8278 77.3492 14.2667 78.0984 13.4738C78.8475 12.6809 79.219 11.772 79.219 10.7473C79.219 9.42986 78.6222 8.31367 77.4223 7.41095C76.2225 6.50824 74.773 6.05078 73.0737 6.05078C71.3745 6.05078 69.931 6.50214 68.7373 7.41095C67.5496 8.31977 66.9528 9.42986 66.9528 10.7473C66.9528 11.772 67.3304 12.6809 68.0734 13.4738C68.8226 14.2667 69.8397 14.8278 71.003 15.1633V16.4991H65.418V18.7925H78.1167C79.0972 18.7925 80.0656 18.7742 80.7234 18.7315C81.3812 18.6888 81.9476 18.6095 82.4287 18.4875V21.5128H86.3754V13.8702H89.9748V11.6135ZM86.6494 24.6906H74.4624C74.3345 24.6906 74.2309 24.6601 74.1578 24.5991C74.0847 24.5381 74.0482 24.4527 74.0482 24.3429V20.1282H68.2988V21.281H68.853C69.2245 21.281 69.4986 21.3725 69.6813 21.5555C69.864 21.7385 69.9615 21.9642 69.9615 22.2203V25.1664C69.9615 25.8129 70.1442 26.2826 70.5157 26.5814C70.8872 26.8803 71.4476 27.0267 72.2028 27.0267H86.6433V24.6845L86.6494 24.6906Z" fill="white"/>
<path d="M92.8497 9.49664C92.8497 9.23436 92.7584 9.01478 92.5818 8.8257C92.4051 8.64272 92.1372 8.55123 91.7778 8.55123H91.2418V7.39844H110.908V9.56373H96.8147V15.0593C96.8147 15.2118 96.8634 15.3277 96.9608 15.407C97.0583 15.4802 97.1801 15.5229 97.3202 15.5229H111.036V17.6455H95.9133C94.8474 17.6455 94.0617 17.432 93.5745 17.0111C93.0873 16.5903 92.8376 15.8827 92.8376 14.9068V9.50274L92.8497 9.49664ZM103.861 23.3667H113.186V25.6418H90.511V23.3667H99.8903L99.8599 21.0672C99.8599 20.805 99.7746 20.5976 99.6041 20.4329C99.4336 20.2743 99.2082 20.1889 98.922 20.1889H98.4956V19.0605H103.825L103.855 23.3606L103.861 23.3667Z" fill="white"/>
<path d="M121.237 19.5724V24.5434C121.237 24.6471 121.274 24.7325 121.341 24.7935C121.408 24.8545 121.511 24.885 121.633 24.885H135.026V27.0503H119.453C118.722 27.0503 118.18 26.8978 117.821 26.5989C117.467 26.3001 117.291 25.8304 117.291 25.1839V21.6645C117.291 21.4083 117.199 21.1826 117.023 20.9997C116.846 20.8167 116.578 20.7252 116.219 20.7252H115.683V19.5724H121.231H121.237ZM133.942 14.6319H136.902V16.9313H128.12V21.8353H123.99V16.9313H113.959V14.6319H130.014C130.3 14.1866 130.471 13.7048 130.531 13.1802C130.592 12.6618 130.623 11.8322 130.623 10.96V9.67304C130.623 9.50225 130.586 9.38636 130.519 9.32537C130.446 9.26437 130.306 9.23388 130.093 9.23388H116.213V7.03809H134.332C134.423 7.03809 134.484 7.05638 134.533 7.09298C134.576 7.12958 134.6 7.19057 134.6 7.26986V10.6794C134.6 11.6614 134.551 12.6557 134.454 13.2473C134.356 13.8389 134.18 14.3025 133.93 14.6441L133.942 14.6319Z" fill="white"/>
<path d="M67.8177 30.002L68.7556 34.5338L69.9311 30.002H71.3928L72.4525 34.5338L73.4331 30.002H74.6695L73.1286 36.0465H71.6912L70.5949 31.4231L69.4134 36.0465H67.9395L66.4656 30.002H67.8055H67.8177Z" fill="white"/>
<path d="M76.3931 33.748L77.2884 31.1679L78.1228 33.748H76.3931ZM76.5515 29.9785L74.3711 36.0352H75.6075L76.0582 34.73H78.4517L78.8842 36.0352H80.1875L78.0863 29.9785H76.5454H76.5515Z" fill="white"/>
<path d="M80.7539 29.9785H82.6298L84.8954 34.7422V29.9785H86.1014V36.0352H84.3169L81.9781 31.0093V36.0352H80.7539V29.9785Z" fill="white"/>
<path d="M88.5194 30.9781C89.2624 30.9415 89.6035 30.9842 89.8776 31.0635C90.6876 31.2892 90.98 32.076 90.98 32.9299C90.98 33.2227 90.9495 34.1254 90.4379 34.6378C90.0603 35.0159 89.5852 35.0586 89.031 35.0586C88.8787 35.0586 88.6656 35.0464 88.5194 35.0403V30.9781ZM87.2039 36.0345H89.0858C89.6949 36.0345 89.9507 36.0101 90.176 35.9674C91.321 35.76 92.3199 34.7902 92.3199 32.9299C92.3199 32.0699 92.0519 31.1123 91.2906 30.5511C90.5658 30.0144 89.5426 30.0083 89.2076 30.0083L87.21 29.9961V36.0345H87.2039Z" fill="white"/>
<path d="M94.3479 33.053C94.3479 32.3638 94.4515 31.7111 94.7925 31.2964C95.0362 30.9853 95.4199 30.784 95.9071 30.784C96.5283 30.784 97.0339 31.1134 97.2897 31.8575C97.4176 32.2235 97.4419 32.6444 97.4419 32.9371C97.4419 33.9008 97.2287 34.3705 97.0278 34.6694C96.7841 35.0475 96.4248 35.2305 95.901 35.2305C95.2981 35.2305 94.9874 34.9987 94.8047 34.7426C94.4454 34.2729 94.354 33.6264 94.354 33.053H94.3479ZM92.9958 33.0957C92.9958 33.6447 93.0811 34.6511 93.7389 35.3525C94.2931 35.9319 95.091 36.182 95.8827 36.182C96.3822 36.182 97.3627 36.0722 98.0327 35.3159C98.526 34.7609 98.794 33.8276 98.794 32.9493C98.794 32.3577 98.6661 31.4062 98.0266 30.6681C97.4358 29.9972 96.5466 29.8447 95.901 29.8447C93.7267 29.8447 92.9958 31.4794 92.9958 33.0896V33.0957Z" fill="white"/>
<path d="M105.457 31.955C105.433 31.7476 105.359 30.8937 104.476 30.8937C103.514 30.8937 103.112 31.9001 103.112 33.1443C103.112 33.5042 103.112 35.2242 104.373 35.2242C104.915 35.2242 105.433 34.8827 105.457 34.0776H106.821C106.797 34.4374 106.76 34.9986 106.279 35.4987C105.743 36.0538 105.067 36.1758 104.513 36.1758C102.43 36.1758 101.754 34.6326 101.754 33.1382C101.754 31.2169 102.826 29.9482 104.525 29.9482C105.847 29.9482 106.772 30.7534 106.772 31.9611H105.451L105.457 31.955Z" fill="white"/>
<path d="M108.758 33.053C108.758 32.3638 108.855 31.7111 109.202 31.2964C109.446 30.9853 109.83 30.784 110.317 30.784C110.938 30.784 111.444 31.1134 111.7 31.8575C111.827 32.2235 111.852 32.6444 111.852 32.9371C111.852 33.9008 111.645 34.3705 111.444 34.6694C111.2 35.0475 110.841 35.2305 110.311 35.2305C109.708 35.2305 109.397 34.9987 109.215 34.7426C108.855 34.2729 108.764 33.6264 108.764 33.053H108.758ZM107.4 33.0957C107.4 33.6447 107.485 34.6511 108.143 35.3525C108.697 35.9319 109.489 36.182 110.287 36.182C110.792 36.182 111.767 36.0722 112.436 35.3159C112.93 34.7609 113.198 33.8276 113.198 32.9493C113.198 32.3577 113.07 31.4062 112.424 30.6681C111.834 29.9972 110.944 29.8447 110.299 29.8447C108.124 29.8447 107.394 31.4794 107.394 33.0896L107.4 33.0957Z" fill="white"/>
<path d="M115.287 29.9961V33.6801C115.287 34.3389 115.335 35.1684 116.602 35.1684C116.809 35.1684 117.437 35.1623 117.772 34.6439C117.9 34.4609 117.967 34.2291 117.967 33.6131V29.9961H119.227V33.7777C119.227 35.5771 117.796 36.1565 116.578 36.1565C115.975 36.1565 114.873 36.0223 114.3 35.1074C114.008 34.6499 113.99 34.1803 113.99 33.6191V30.0022H115.287V29.9961Z" fill="white"/>
<path d="M120.379 29.9785H122.255L124.52 34.7422V29.9785H125.726V36.0352H123.948L121.603 31.0093V36.0352H120.379V29.9785Z" fill="white"/>
<path d="M128.199 30.9849H126.402V29.9785H131.305V30.9849H129.508V36.0352H128.205V30.9849H128.199Z" fill="white"/>
<path d="M132.956 30.0022L134.204 32.7591L135.477 30.0022H136.805L134.765 33.8265V36.0284H133.486V33.8082L131.445 29.9961H132.962L132.956 30.0022Z" fill="white"/>
<path d="M56.6964 21C56.6964 32.046 44.0038 41 28.3452 41C12.6865 41 0 32.04 0 21C0 9.96005 12.6926 1 28.3452 1C43.9978 1 56.6964 9.95395 56.6964 21Z" fill="#0D3896"/>
<path d="M29.472 38.4145C17.3459 37.8656 17.0109 37.3166 19.2339 37.2678C19.2339 37.2678 64.7969 35.3099 30.5501 32.7604C30.5501 32.7604 25.0503 32.3212 39.7467 31.8637C39.7467 31.8637 43.5289 31.1989 23.9175 29.8692C23.9175 29.8692 27.8398 28.0821 40.8552 28.5945L36.5979 19.8418C36.5979 19.8418 35.9036 16.2126 35.5991 14.9988C35.3006 13.7912 34.5089 1.28125 34.5089 1.28125C33.2238 1.43983 31.6829 1.55572 31.6829 1.55572C26.3233 1.26295 18.4482 3.9345 18.4482 3.9345L16.682 4.29436L16.5541 6.58165C16.9865 8.71034 16.682 11.2721 16.682 11.2721C16.7916 13.2971 14.0631 17.8534 14.0631 17.8534L15.7562 22.7146L15.6771 25.5935L17.4433 29.9241C17.4433 29.9241 28.4732 31.0647 31.5794 30.9122C31.5794 30.9122 38.6139 31.2538 29.0092 31.6991C29.0092 31.6991 2.02825 31.5954 9.12978 32.7177C9.12978 32.7177 21.8224 33.8095 28.4671 34.273C28.4671 34.273 35.794 35.1208 16.9743 36.2309C16.9743 36.2309 8.1553 36.908 16.6272 38.5609C16.6272 38.5609 30.5561 40.7384 42.2864 38.5731C42.2864 38.5731 46.1356 37.4691 40.8978 37.9693C40.8978 37.9693 30.7084 38.4572 29.4659 38.4023L29.472 38.4145Z" fill="white"/>
<path d="M49.455 19.4755C49.455 19.4755 41.3242 19.0303 40.167 21.3115C40.167 21.3115 37.6334 24.9345 47.1894 24.1355C47.1894 24.1355 46.5011 21.6225 49.4489 19.4755H49.455Z" fill="#FFCC00"/>
<path d="M30.2515 15.4256C30.2515 15.4256 22.1451 14.9682 20.994 17.3164C20.994 17.3164 18.4664 21.0432 27.9981 20.2137C27.9981 20.2137 27.3098 17.6336 30.2576 15.4256H30.2515Z" fill="#40A629"/>
<path d="M39.2714 7.28922C39.2714 7.28922 31.3598 6.85006 30.2331 9.11294C30.2331 9.11294 27.7664 12.7055 37.0666 11.9126C37.0666 11.9126 36.3906 9.41792 39.2714 7.28922Z" fill="#FF7F00"/>
<line x1="148.5" y1="7" x2="148.5" y2="33" stroke="white" stroke-opacity="0.3"/>
<path d="M171.25 14.8H175.725V8.425H177.8V22.025H175.725V16.5H171.25V14.8ZM172.6 19.475L171.625 21.075C169.05 20.275 167.025 18.6 166 16.425C165.05 18.875 163.025 20.775 160.375 21.65L159.375 20.075C162.675 18.95 164.925 16.225 164.925 13.2V12.775H159.95V11.125H164.925V8.3H166.975V11.125H171.925V12.775H166.975V13.2C166.975 16 169.3 18.5 172.6 19.475ZM170.375 29.225C173.775 29.225 175.825 28.275 175.825 26.7C175.825 25.15 173.8 24.2 170.375 24.2C167 24.2 164.975 25.15 164.975 26.7C164.975 28.275 167 29.225 170.375 29.225ZM170.375 22.6C175.025 22.6 177.875 24.1 177.875 26.7C177.875 29.325 175.025 30.825 170.375 30.825C165.775 30.825 162.925 29.325 162.925 26.7C162.925 24.1 165.775 22.6 170.375 22.6ZM195.398 19.7L194.373 21.325C191.848 20.4 189.898 18.525 188.898 16.175C187.973 18.825 185.973 20.875 183.298 21.875L182.223 20.25C185.648 19.025 187.823 16.025 187.823 12.55V9.775H189.873V12.6C189.873 15.675 192.098 18.525 195.398 19.7ZM187.873 23.4V28.675H200.698V30.35H185.823V23.4H187.873ZM199.723 15.3H203.023V17H199.723V24.975H197.673V8.4H199.723V15.3ZM216.496 26.325H225.671V28.025H205.296V26.325H214.421V20.575H207.896V10.225H223.096V11.9H209.946V18.925H223.321V20.575H216.496V26.325Z" fill="white"/>
</svg>
